# xmcd
#
# Track frame offsets: 
#        150
#        11807
#        24235
#        37072
#        50372
#        62965
#        77907
#        91035
#        101350
#        115512
#        127822
#        143762
#
# Disc length: 2071 seconds
#
# Revision: 0
# Processed by: cddbd v1.5.2PL0 Copyright (c) Steve Scherf et al.
# Submitted via: ExactAudioCopyFreeDBPlugin 1.0
#
DISCID=8e08150c
DTITLE=Various Artist - Country Treasures - Walkin' After Midnight
DYEAR=1900
DGENRE=Country
TTITLE0=Patsy Cline - Walkin' After Midnight
TTITLE1=Willie Nelson - Half A Man
TTITLE2=Bill Anderson - Still
TTITLE3=Conway Twitty - After All The Good Is Gone
TTITLE4=Glen Campbell - By The Time I Get To Phoenix
TTITLE5=Roger Miller - Me And Bobby McGee
TTITLE6=Donna Fargo - Daddy
TTITLE7=Jerry Wallace - Primrose Lane
TTITLE8=Eddy Raven - I Should've Called
TTITLE9=Wynn Stewart - Wishful Thinking
TTITLE10=Sammy Kershaw - I Got A Name
TTITLE11=Roy Clark - Thank Got And Greyhound
EXTD=
EXTT0=
EXTT1=
EXTT2=
EXTT3=
EXTT4=
EXTT5=
EXTT6=
EXTT7=
EXTT8=
EXTT9=
EXTT10=
EXTT11=
PLAYORDER=
